<svg id="visual" viewBox="0 0 1920 1080" width="1920" height="1080" xmlns="http://www.w3.org/2000/svg" xmlns:xlink="http://www.w3.org/1999/xlink" version="1.1"><rect x="0" y="0" width="1920" height="1080" fill="#f0f2f5"></rect><path d="M0 774L53.3 792.8C106.7 811.7 213.3 849.3 320 880.7C426.7 912 533.3 937 640 943C746.7 949 853.3 936 960 887.8C1066.7 839.7 1173.3 756.3 1280 752.3C1386.7 748.3 1493.3 823.7 1600 838.2C1706.7 852.7 1813.3 806.3 1866.7 783.2L1920 760L1920 1081L1866.7 1081C1813.3 1081 1706.7 1081 1600 1081C1493.3 1081 1386.7 1081 1280 1081C1173.3 1081 1066.7 1081 960 1081C853.3 1081 746.7 1081 640 1081C533.3 1081 426.7 1081 320 1081C213.3 1081 106.7 1081 53.3 1081L0 1081Z" fill="#c43724" stroke-linecap="round" stroke-linejoin="miter"></path></svg>