<svg width="533" height="532" viewBox="0 0 533 532" fill="none" xmlns="http://www.w3.org/2000/svg">
<g clip-path="url(#clip0_545_13)">
<path d="M379.69 379.05H246.69V199.05L361.69 262.05L379.69 379.05Z" fill="#2F2E41"/>
<path d="M271.26 347.281C318.949 347.281 357.609 308.621 357.609 260.932C357.609 213.243 318.949 174.583 271.26 174.583C223.571 174.583 184.911 213.243 184.911 260.932C184.911 308.621 223.571 347.281 271.26 347.281Z" fill="#FFB6B6"/>
<path d="M221.69 360.05L217.789 320.616L295.69 306.05L341.69 418.05L261.69 510.05L204.69 398.05L221.69 360.05Z" fill="#FFB6B6"/>
<path d="M457.54 451.09C456.57 452.1 455.58 453.1 454.59 454.09C451.45 457.23 448.25 460.28 444.98 463.24C395.98 507.68 333.11 532 266.5 532C205.09 532 146.86 511.33 99.75 473.28C99.72 473.26 99.7 473.24 99.67 473.21C98.24 472.06 96.83 470.89 95.42 469.7C95.67 468.98 95.94 468.27 96.21 467.57C111.36 428.1 141.28 408.79 159.44 400.34C168.44 396.15 174.55 394.62 174.55 394.62L195.87 356.22L210.88 384.22L221.94 404.86L267.32 489.53L306.47 392.05L318.6 361.83L321.71 354.09L336.5 365.6L350.5 376.49L378.69 382.71L401.56 387.76L432.62 394.62C445.18 404.85 452.82 424.31 457.09 448.49C457.25 449.35 457.4 450.22 457.54 451.09Z" fill="#F4DEBB"/>
<path d="M225.839 162.803C236.358 145.135 255.675 133.013 276.159 131.226C296.643 129.439 317.768 138.034 331.186 153.614C339.182 162.899 344.425 174.269 352.219 183.723C368.991 204.069 397.591 215.965 404.918 241.294C408.115 252.347 406.522 264.147 404.904 275.539C403.518 285.303 402.131 295.067 400.744 304.831C399.665 312.43 398.631 320.441 401.48 327.567C404.823 335.928 412.822 341.404 417.994 348.775C426.795 361.316 426.152 379.678 416.495 391.573C412.307 396.731 406.754 400.622 402.364 405.609C397.973 410.596 394.716 417.414 396.555 423.799C400.078 436.031 419.26 438.964 421.364 451.517C422.439 457.935 418.006 464.345 412.198 467.28C406.389 470.215 399.552 470.3 393.092 469.515C368.538 466.53 345.805 451.188 333.85 429.535C321.896 407.882 321.025 380.469 331.582 358.101C340.252 339.73 356.367 323.496 356.191 303.182C356.096 292.115 351.02 281.778 346.056 271.887C335.897 251.641 325.738 231.395 315.578 211.149C310.136 200.305 303.821 188.618 292.617 183.959C283.959 180.358 274.134 181.755 264.873 183.227C255.612 184.7 245.801 186.134 237.117 182.596C228.432 179.058 221.87 168.546 226.008 160.131" fill="#2F2E41"/>
<path d="M240.971 163.726C224.289 158.234 205.574 167.05 194.28 180.5C182.986 193.95 177.507 211.206 172.288 227.976C169.299 237.582 166.309 247.188 163.32 256.794C160.507 265.83 157.695 274.866 154.883 283.902C151.575 294.531 148.24 305.823 150.955 316.618C152.917 324.423 157.967 331.509 158.076 339.556C158.19 347.962 152.926 355.341 148.313 362.369C143.699 369.396 139.369 377.746 141.567 385.86C144.91 398.202 162.069 404.986 161.128 417.737C160.814 421.993 158.353 425.929 158.398 430.197C158.455 435.626 162.706 440.317 167.686 442.48C172.665 444.643 178.267 444.76 183.696 444.665C200.347 444.372 216.968 442.395 233.224 438.772C239.478 437.379 245.838 435.67 251.043 431.934C256.249 428.199 260.133 422.01 259.455 415.638C258.4 405.71 247.724 400.077 242.337 391.67C237.046 383.413 237.169 372.951 234.887 363.412C231.751 350.304 224.007 338.86 218.193 326.7C196.336 280.984 203.987 222.713 236.905 184.189C239.816 180.783 242.995 177.356 244.21 173.044C245.424 168.731 243.859 163.236 239.64 161.728" fill="#2F2E41"/>
<path d="M454.59 77.91C404.35 27.67 337.55 0 266.5 0C195.45 0 128.65 27.67 78.41 77.91C28.17 128.15 0.5 194.95 0.5 266C0.5 330.85 23.55 392.16 65.79 440.57C69.82 445.2 74.03 449.71 78.41 454.09C79.44 455.12 80.48 456.15 81.53 457.15C84.33 459.86 87.18 462.51 90.08 465.08C91.84 466.65 93.62 468.19 95.42 469.7C96.83 470.89 98.24 472.06 99.67 473.21C99.7 473.24 99.7201 473.26 99.75 473.28C146.86 511.33 205.09 532 266.5 532C333.11 532 395.98 507.68 444.98 463.24C448.25 460.28 451.45 457.23 454.59 454.09C455.58 453.1 456.57 452.1 457.54 451.09C460.24 448.31 462.86 445.48 465.42 442.61C508.79 393.89 532.5 331.77 532.5 266C532.5 194.95 504.83 128.15 454.59 77.91ZM464.77 440.12C462.27 442.96 459.71 445.76 457.09 448.49C453.01 452.74 448.8 456.86 444.45 460.83C442.8 462.35 441.13 463.83 439.44 465.3C422.37 480.15 403.37 492.83 382.88 502.93C375.69 506.48 368.32 509.71 360.78 512.6C331.49 523.84 299.7 530 266.5 530C234.46 530 203.74 524.26 175.31 513.76C163.64 509.46 152.36 504.35 141.53 498.5C139.94 497.64 138.36 496.77 136.79 495.88C128.53 491.2 120.54 486.09 112.87 480.57C107.14 476.46 101.58 472.13 96.21 467.57C94.33 465.98 92.47 464.37 90.64 462.72C87.66 460.07 84.74 457.34 81.89 454.54C76.49 449.25 71.33 443.74 66.4 438.01C26.59 391.77 2.5 331.65 2.5 266C2.5 120.43 120.93 2 266.5 2C412.07 2 530.5 120.43 530.5 266C530.5 332.66 505.67 393.62 464.77 440.12Z" fill="#3F3D56"/>
</g>
<defs>
<clipPath id="clip0_545_13">
<rect width="532" height="532" fill="white" transform="translate(0.5)"/>
</clipPath>
</defs>
</svg>
