<?xml version="1.0" encoding="utf-8"?>
<!-- Generator: Adobe Illustrator 26.3.1, SVG Export Plug-In . SVG Version: 6.00 Build 0)  -->
<svg version="1.1" id="Layer_1" xmlns="http://www.w3.org/2000/svg" xmlns:xlink="http://www.w3.org/1999/xlink" x="0px" y="0px"
	 viewBox="0 0 344 214" style="enable-background:new 0 0 344 214;" xml:space="preserve">
<style type="text/css">
	.st0{fill:#3F3D56;}
	.st1{fill:#D62311;}
	.st2{fill:#E6E6E6;}
	.st3{fill:#FFFFFF;}
</style>
<path class="st0" d="M125.5,150.5c-0.8,0-1.5,0.7-1.5,1.5v59.8c0,0.8,0.7,1.5,1.5,1.5h10.1c0.8,0,1.5-0.7,1.5-1.5V152
	c0-0.8-0.7-1.5-1.5-1.5H125.5L125.5,150.5z"/>
<path class="st0" d="M209.9,150.5c-0.8,0-1.5,0.7-1.5,1.5v59.8c0,0.8,0.7,1.5,1.5,1.5H220c0.8,0,1.5-0.7,1.5-1.5V152
	c0-0.8-0.7-1.5-1.5-1.5H209.9L209.9,150.5z"/>
<path class="st0" d="M257.3,103l-77.8-6l62.1,10.6l14.9-2.6L257.3,103z"/>
<path class="st1" d="M242.1,106.6L257,104l0.1-0.3l0.7,0.1l-0.9,2l-14.9,2.6L180,97l18.4,2.2L242.1,106.6z"/>
<path class="st0" d="M81.1,103L3.3,97l62.1,10.6l14.9-2.6L81.1,103z"/>
<path class="st1" d="M64.5,106.6l14.9-2.6l0.1-0.3l0.7,0.1l-0.9,2l-14.9,2.6L2.4,97l18.4,2.2L64.5,106.6z"/>
<path class="st0" d="M270.4,134.2l-6.6,0.3l-60.3,25.4l-3.5,2.9l-10.9,9.2h-34.3l-10.3-9.2l-3.9-3.5l-57.8-24.6l-5.1-0.6l17.2-8.3
	h0.1c3.9-3.7,37.6-6.6,78.6-6.6c41,0,74.7,2.9,78.6,6.6h0.4L270.4,134.2L270.4,134.2z"/>
<path class="st0" d="M94.3,126.3c0.1-0.3,0.2-0.7,0.2-1.1v-13.6c0-1.8-1.4-3.2-3.2-3.2H90c3-3,3-7.9-0.1-10.9c-3-3-7.9-3-10.9,0.1
	c-3,3-3,7.9,0,10.9h-1.3c-1.8,0-3.2,1.4-3.2,3.2v13.6c0,0.6,0.1,1.1,0.4,1.6c-1,0.2-1.9,0.4-2.9,0.6c-1.2,0.3-2.1,1.4-2.1,2.6v3.2
	c0,1.5,1.2,2.7,2.7,2.7h30.2v-8C100,127.2,97.2,126.6,94.3,126.3z"/>
<path class="st0" d="M273.2,127.4c-1-0.2-1.9-0.4-2.9-0.6c0.3-0.5,0.4-1,0.4-1.6v-13.6c0-1.8-1.4-3.2-3.2-3.2h-1.3c3-3,3-7.9,0-10.9
	s-7.9-3-10.9,0.1c-3,3-3,7.9,0,10.9h-1.3c-1.8,0-3.2,1.4-3.2,3.2v13.6c0,0.4,0.1,0.7,0.2,1.1c-2.9,0.3-5.7,0.9-8.5,1.6v8h30.2
	c1.5,0,2.7-1.2,2.7-2.7V130C275.3,128.7,274.4,127.6,273.2,127.4L273.2,127.4z"/>
<path class="st0" d="M264.1,103l77.8-6l-62.1,10.6L265,105L264.1,103z"/>
<path class="st0" d="M178.1,169.4H166c-1.9,0-3.4,1.5-3.4,3.4v2.6c0,1.4,0.9,2.7,2.2,3.2c-0.5,0.6-0.8,1.4-0.8,2.1v0.8
	c0,1.1,0.5,2.1,1.4,2.7v10h13.2v-10c0.9-0.6,1.4-1.6,1.4-2.7v-0.8c0-0.8-0.3-1.5-0.8-2.1c1.3-0.5,2.2-1.8,2.2-3.2v-2.6
	C181.5,170.9,179.9,169.4,178.1,169.4L178.1,169.4z"/>
<path class="st1" d="M159.8,192.8c-1.1,0-2,0.9-2,2v16.2c0,1.1,0.9,2,2,2h24.5c1.1,0,2-0.9,2-2v-16.2c0-1.1-0.9-2-2-2H159.8z"/>
<path class="st1" d="M200.1,162.8l-10.9,9.2h-34.3l-10.3-9.2h10.3l0.4-2.2c0.3-1.4,1.5-2.3,2.8-2.3h28.7c1.4,0,2.6,1,2.8,2.3
	l0.4,2.2H200.1L200.1,162.8z"/>
<path class="st0" d="M172,211c4.4,0,8-3.6,8-8c0-4.4-3.6-8-8-8c-4.4,0-8,3.6-8,8C164,207.4,167.6,211,172,211z"/>
<path class="st2" d="M172,207.6c2.5,0,4.6-2,4.6-4.6c0-2.5-2-4.6-4.6-4.6c-2.5,0-4.6,2-4.6,4.6C167.5,205.5,169.5,207.6,172,207.6z"
	/>
<path class="st3" d="M174.8,199.3c1.5,2,1.1,4.9-0.9,6.4c-1.6,1.2-3.9,1.2-5.5,0c1.5,2,4.4,2.4,6.4,0.9c2-1.5,2.4-4.4,0.9-6.4
	C175.4,199.9,175.1,199.6,174.8,199.3L174.8,199.3z"/>
<path class="st2" d="M275.4,130.8H70v1.3h205.4V130.8z"/>
<path class="st1" d="M280.4,106.6l-14.9-2.6l-0.1-0.3l-0.7,0.1l0.9,2l14.9,2.6L342.5,97l-18.4,2.2L280.4,106.6z"/>
<path class="st0" d="M87.9,103l77.8-6l-62.1,10.6L88.8,105L87.9,103z"/>
<path class="st1" d="M104.5,106.6L89.6,104l-0.1-0.3l-0.7,0.1l0.9,2l14.9,2.6L166.6,97l-18.4,2.2L104.5,106.6z"/>
<path class="st2" d="M183.9,160.6H161v4.6h22.9V160.6z"/>
<path class="st2" d="M98.9,0H29.5c-5.1,0-9.3,4.2-9.3,9.3v36.9c0,5.1,4.2,9.3,9.3,9.3h69.4c5.1,0,9.3-4.2,9.3-9.3V9.3
	C108.1,4.2,104,0,98.9,0z"/>
<path class="st3" d="M29.5,7.6c-1,0-1.7,0.8-1.7,1.7v36.9c0,1,0.8,1.7,1.7,1.7h69.4c1,0,1.7-0.8,1.7-1.7V9.3c0-1-0.8-1.7-1.7-1.7
	H29.5z"/>
<path class="st1" d="M62.8,44C62.8,44,62.7,44,62.8,44c-0.7,0-1.1-0.5-1.2-1l-4-24.1L54,33c-0.1,0.6-0.6,0.9-1.2,0.9h-5
	c-0.7,0-1.3-0.6-1.3-1.3s0.6-1.3,1.3-1.3h4l4.8-19.1c0.2-0.7,0.8-1.1,1.5-0.9c0.5,0.1,0.8,0.5,0.9,1l4.1,24.6l3.5-12.2
	c0.2-0.7,0.9-1.1,1.5-0.9c0.4,0.1,0.7,0.4,0.8,0.8l2.2,6.7h4.1c0.7,0,1.3,0.6,1.3,1.3S76,34,75.3,34h-5c-0.5,0-1-0.3-1.2-0.9
	l-1.2-3.7L64,43.1C63.8,43.6,63.3,44,62.8,44L62.8,44z"/>
<path class="st0" d="M78.2,36.4c2,0,3.7-1.6,3.7-3.7c0-2-1.6-3.7-3.7-3.7s-3.7,1.6-3.7,3.7C74.5,34.8,76.1,36.4,78.2,36.4z"/>
<path class="st2" d="M206.6,0h-69.4c-5.1,0-9.3,4.2-9.3,9.3v36.9c0,5.1,4.2,9.3,9.3,9.3h69.4c5.1,0,9.3-4.2,9.3-9.3V9.3
	C215.8,4.2,211.7,0,206.6,0z"/>
<path class="st3" d="M137.2,7.6c-1,0-1.7,0.8-1.7,1.7v36.9c0,1,0.8,1.7,1.7,1.7h69.4c1,0,1.7-0.8,1.7-1.7V9.3c0-1-0.8-1.7-1.7-1.7
	H137.2L137.2,7.6z"/>
<path class="st1" d="M171.9,29.7c5.1,0,9.1-4.1,9.1-9.2s-4.1-9.2-9.1-9.2c-5.1,0-9.2,4.1-9.2,9.2S166.8,29.7,171.9,29.7z"/>
<path class="st1" d="M171.9,31.2c6.7,0,12.2,5.5,12.2,12.2V44h-24.4v-0.6C159.7,36.7,165.1,31.2,171.9,31.2L171.9,31.2z"/>
<path class="st0" d="M153.3,34.3c3.5,0,6.4-2.9,6.4-6.4s-2.9-6.4-6.4-6.4c-3.5,0-6.4,2.9-6.4,6.4S149.7,34.3,153.3,34.3z"/>
<path class="st0" d="M159.5,37.2c-3.5-3.1-8.9-2.8-12.1,0.7c-1.4,1.6-2.2,3.6-2.2,5.7V44h12.5v-0.6
	C157.8,41.2,158.4,39.1,159.5,37.2L159.5,37.2z"/>
<path class="st0" d="M190.5,34.3c3.5,0,6.4-2.9,6.4-6.4s-2.9-6.4-6.4-6.4c-3.5,0-6.4,2.9-6.4,6.4S186.9,34.3,190.5,34.3z"/>
<path class="st0" d="M184.2,37.2c3.5-3.1,8.9-2.8,12.1,0.7c1.4,1.6,2.2,3.6,2.2,5.7V44h-12.5v-0.6C185.9,41.2,185.3,39.1,184.2,37.2
	L184.2,37.2z"/>
<path class="st2" d="M314.3,0h-69.4c-5.1,0-9.3,4.2-9.3,9.3v36.9c0,5.1,4.2,9.3,9.3,9.3h69.4c5.1,0,9.3-4.2,9.3-9.3V9.3
	C323.5,4.2,319.4,0,314.3,0z"/>
<path class="st3" d="M244.9,7.6c-1,0-1.7,0.8-1.7,1.7v36.9c0,1,0.8,1.7,1.7,1.7h69.4c1,0,1.7-0.8,1.7-1.7V9.3c0-1-0.8-1.7-1.7-1.7
	H244.9L244.9,7.6z"/>
<path class="st1" d="M278.4,44.8c-0.6,0-1.1-0.5-1.1-1.1v-9.1c0-0.6,0.5-1.1,1.1-1.1c0.6,0,1.1,0.5,1.1,1.1v9.1
	C279.5,44.2,279,44.8,278.4,44.8z"/>
<path class="st1" d="M282.4,40.2h-7.9c-0.6,0-1.1-0.5-1.1-1.1s0.5-1.1,1.1-1.1h8c0.6,0,1.1,0.5,1.1,1.1S283,40.2,282.4,40.2
	L282.4,40.2z"/>
<path class="st1" d="M293.7,18.6c-0.6,0-1.1-0.5-1.1-1.1v-4.5h-4.5c-0.6,0-1.1-0.5-1.1-1.1c0-0.6,0.5-1.1,1.1-1.1h5.7
	c0.6,0,1.1,0.5,1.1,1.1v5.7C294.9,18.1,294.4,18.6,293.7,18.6z"/>
<path class="st1" d="M286.9,19.8c-0.6,0-1.1-0.5-1.1-1.1c0-0.3,0.1-0.6,0.3-0.8l6.9-6.9c0.4-0.4,1.2-0.4,1.6,0
	c0.4,0.4,0.4,1.2,0,1.6l-6.9,6.9C287.5,19.7,287.2,19.8,286.9,19.8z"/>
<path class="st0" d="M278.4,34.5c-6,0-10.8-4.8-10.8-10.8c0-6,4.8-10.8,10.8-10.8c6,0,10.8,4.8,10.8,10.8
	C289.2,29.7,284.4,34.5,278.4,34.5z M278.4,15.2c-4.7,0-8.5,3.8-8.5,8.5c0,4.7,3.8,8.5,8.5,8.5s8.5-3.8,8.5-8.5
	C286.9,19,283.1,15.2,278.4,15.2z"/>
<path class="st0" d="M344,213.1H0v0.9h344V213.1z"/>
</svg>
