<svg width="1512" height="329" viewBox="0 0 1512 329" fill="none" xmlns="http://www.w3.org/2000/svg">
<path d="M0 75.2759L50.4 86.859C100.8 98.3633 201.6 121.529 302.4 128.7C403.2 135.949 504 127.282 604.8 125.075C705.6 122.79 806.4 127.045 907.2 100.254C1008 73.4636 1108.8 15.6271 1209.6 3.17733C1310.4 -9.27249 1411.2 23.5068 1461.6 39.9752L1512 56.3648V329.788H1461.6C1411.2 329.788 1310.4 329.788 1209.6 329.788C1108.8 329.788 1008 329.788 907.2 329.788C806.4 329.788 705.6 329.788 604.8 329.788C504 329.788 403.2 329.788 302.4 329.788C201.6 329.788 100.8 329.788 50.4 329.788H0V75.2759Z" fill="#F2DDBB"/>
</svg>
