<svg id="visual" viewBox="0 0 1920 1080" width="1920" height="1080" xmlns="http://www.w3.org/2000/svg" xmlns:xlink="http://www.w3.org/1999/xlink" version="1.1"><rect x="0" y="0" width="1920" height="1080" fill="#d62311"></rect><path d="M0 758L64 772.7C128 787.3 256 816.7 384 825.8C512 835 640 824 768 821.2C896 818.3 1024 823.7 1152 789.7C1280 755.7 1408 682.3 1536 666.5C1664 650.7 1792 692.3 1856 713.2L1920 734L1920 1081L1856 1081C1792 1081 1664 1081 1536 1081C1408 1081 1280 1081 1152 1081C1024 1081 896 1081 768 1081C640 1081 512 1081 384 1081C256 1081 128 1081 64 1081L0 1081Z" fill="#f2ddbb" stroke-linecap="round" stroke-linejoin="miter"></path></svg>