<svg id="visual" viewBox="0 0 1080 1920" width="1080" height="1920" xmlns="http://www.w3.org/2000/svg" xmlns:xlink="http://www.w3.org/1999/xlink" version="1.1"><rect x="0" y="0" width="1080" height="1920" fill="#ffffff"></rect><defs><linearGradient id="grad1_0" x1="0%" y1="100%" x2="100%" y2="0%"><stop offset="30%" stop-color="#c43724" stop-opacity="1"></stop><stop offset="70%" stop-color="#c43724" stop-opacity="1"></stop></linearGradient></defs><defs><linearGradient id="grad1_1" x1="0%" y1="100%" x2="100%" y2="0%"><stop offset="30%" stop-color="#c43724" stop-opacity="1"></stop><stop offset="70%" stop-color="#ed9e8c" stop-opacity="1"></stop></linearGradient></defs><defs><linearGradient id="grad1_2" x1="0%" y1="100%" x2="100%" y2="0%"><stop offset="30%" stop-color="#ffffff" stop-opacity="1"></stop><stop offset="70%" stop-color="#ed9e8c" stop-opacity="1"></stop></linearGradient></defs><defs><linearGradient id="grad2_0" x1="0%" y1="100%" x2="100%" y2="0%"><stop offset="30%" stop-color="#c43724" stop-opacity="1"></stop><stop offset="70%" stop-color="#c43724" stop-opacity="1"></stop></linearGradient></defs><defs><linearGradient id="grad2_1" x1="0%" y1="100%" x2="100%" y2="0%"><stop offset="30%" stop-color="#ed9e8c" stop-opacity="1"></stop><stop offset="70%" stop-color="#c43724" stop-opacity="1"></stop></linearGradient></defs><defs><linearGradient id="grad2_2" x1="0%" y1="100%" x2="100%" y2="0%"><stop offset="30%" stop-color="#ed9e8c" stop-opacity="1"></stop><stop offset="70%" stop-color="#ffffff" stop-opacity="1"></stop></linearGradient></defs><g transform="translate(1080, 1920)"><path d="M-864 0C-832.9 -109.1 -801.7 -218.2 -753 -311.9C-704.2 -405.6 -637.8 -483.9 -565.7 -565.7C-493.6 -647.5 -415.9 -732.7 -320.7 -774.2C-225.5 -815.7 -112.7 -813.3 0 -811L0 0Z" fill="#facec4"></path><path d="M-576 0C-555.2 -72.7 -534.5 -145.5 -502 -207.9C-469.5 -270.4 -425.2 -322.6 -377.1 -377.1C-329.1 -431.6 -277.3 -488.5 -213.8 -516.1C-150.3 -543.8 -75.2 -542.2 0 -540.7L0 0Z" fill="#db6d56"></path><path d="M-288 0C-277.6 -36.4 -267.2 -72.7 -251 -104C-234.7 -135.2 -212.6 -161.3 -188.6 -188.6C-164.5 -215.8 -138.6 -244.2 -106.9 -258.1C-75.2 -271.9 -37.6 -271.1 0 -270.3L0 0Z" fill="#c43724"></path></g><g transform="translate(0, 0)"><path d="M864 0C820.4 101.7 776.7 203.4 737.3 305.4C697.8 407.3 662.5 509.6 593.3 593.3C524.1 677 421 742.2 316.5 764C212 785.9 106 764.5 0 743L0 0Z" fill="#facec4"></path><path d="M576 0C546.9 67.8 517.8 135.6 491.5 203.6C465.2 271.6 441.6 339.7 395.5 395.5C349.4 451.3 280.7 494.8 211 509.4C141.3 523.9 70.7 509.6 0 495.3L0 0Z" fill="#db6d56"></path><path d="M288 0C273.5 33.9 258.9 67.8 245.8 101.8C232.6 135.8 220.8 169.9 197.8 197.8C174.7 225.7 140.3 247.4 105.5 254.7C70.7 262 35.3 254.8 0 247.7L0 0Z" fill="#c43724"></path></g></svg>